<?xml version="1.0" standalone="no"?>
<!DOCTYPE svg PUBLIC "-//W3C//DTD SVG 20010904//EN"
 "http://www.w3.org/TR/2001/REC-SVG-20010904/DTD/svg10.dtd">
<svg version="1.0" xmlns="http://www.w3.org/2000/svg"
 width="1280.000000pt" height="1082.000000pt" viewBox="0 0 1280.000000 1082.000000"
 preserveAspectRatio="xMidYMid meet">
<g transform="translate(0.000000,1082.000000) scale(0.100000,-0.100000)"
fill="#000000" stroke="none">
<path d="M11765 10809 c-27 -4 -106 -15 -175 -24 -579 -75 -1039 -390 -1382
-948 -40 -65 -67 -99 -82 -102 -11 -2 -66 -6 -121 -10 -55 -3 -235 -14 -400
-25 -375 -25 -1133 -74 -1535 -100 -168 -11 -370 -25 -450 -30 -80 -6 -354
-24 -610 -40 -256 -16 -530 -34 -610 -40 -80 -6 -422 -28 -760 -50 -338 -22
-680 -44 -760 -50 -80 -6 -354 -24 -610 -40 -256 -16 -530 -34 -610 -40 -80
-6 -354 -24 -610 -40 -256 -16 -530 -34 -610 -40 -80 -6 -354 -24 -610 -40
-1150 -75 -1098 -69 -1237 -135 -284 -133 -499 -415 -571 -745 -27 -126 -22
-176 67 -615 80 -400 129 -647 461 -2340 88 -451 181 -921 205 -1045 37 -187
51 -238 84 -307 141 -293 380 -481 692 -544 38 -7 1153 -10 3795 -9 2822 1
3743 -2 3746 -10 5 -17 -161 -1003 -172 -1013 -4 -5 -45 -15 -91 -23 -437 -76
-818 -415 -940 -836 -13 -43 -28 -79 -35 -82 -6 -2 -589 -1 -1295 4 -706 5
-1597 9 -1979 10 -382 0 -712 3 -732 6 -36 6 -37 7 -63 93 -69 220 -217 434
-399 575 -106 82 -167 118 -279 165 -223 95 -491 121 -727 70 -483 -104 -866
-515 -935 -1004 -56 -393 69 -762 352 -1041 382 -375 996 -449 1451 -175 283
170 470 418 558 739 9 34 20 65 25 68 10 6 3975 -15 4006 -22 16 -3 25 -15 33
-47 56 -222 173 -421 342 -583 191 -183 413 -286 706 -330 108 -15 135 -16
210 -5 134 19 229 40 317 71 338 116 619 397 735 735 107 309 88 639 -55 931
-123 253 -339 462 -587 570 -46 20 -88 41 -95 48 -8 8 12 152 87 596 54 322
191 1139 305 1815 113 677 244 1455 290 1730 108 644 310 1848 420 2505 l86
515 45 72 c73 118 174 242 281 344 187 179 365 273 628 329 190 41 564 39 840
-5 44 -7 82 -12 83 -10 11 11 75 486 67 494 -6 5 -93 19 -195 30 -102 12 -224
26 -271 31 -99 12 -252 11 -324 -1z m-1725 -1615 c0 -14 -11 -89 -25 -167 -13
-78 -114 -680 -224 -1337 -111 -657 -263 -1568 -340 -2025 -77 -456 -172
-1023 -211 -1260 -40 -236 -75 -433 -79 -437 -3 -3 -1691 -10 -3751 -13 -3461
-7 -3750 -6 -3809 9 -35 9 -86 28 -112 43 -65 35 -154 130 -184 195 -16 35
-53 202 -110 493 -47 242 -135 690 -195 995 -125 634 -418 2131 -456 2325 -34
172 -30 218 25 331 53 105 148 207 231 247 63 29 -8 23 980 87 338 22 680 44
760 50 80 6 354 24 610 40 256 16 530 34 610 40 80 6 354 24 610 40 256 16
530 34 610 40 80 6 354 24 610 40 256 16 530 34 610 40 80 6 354 24 610 40
256 16 530 34 610 40 80 6 354 24 610 40 256 17 564 37 685 45 121 8 398 26
615 40 217 14 442 30 500 34 58 5 129 9 158 10 49 1 52 0 52 -25z m-7288
-7329 c221 -46 413 -221 484 -439 22 -67 27 -101 28 -191 1 -189 -58 -331
-194 -466 -211 -210 -531 -249 -788 -97 -122 72 -239 219 -283 358 -30 93 -36
246 -15 344 76 341 423 563 768 491z m6456 -27 c112 -34 180 -76 272 -168 143
-142 196 -281 187 -485 -8 -176 -63 -301 -187 -426 -124 -125 -279 -189 -455
-189 -187 0 -321 56 -456 190 -71 70 -93 100 -127 170 -53 112 -67 174 -66
295 0 118 17 185 77 299 93 179 276 305 492 339 56 9 196 -4 263 -25z"/>
<path d="M8285 7940 c-121 -10 -871 -61 -2495 -170 -293 -20 -1083 -73 -1925
-130 -242 -16 -645 -43 -895 -60 -565 -37 -607 -42 -671 -77 -120 -65 -176
-206 -135 -345 29 -101 130 -187 236 -203 25 -3 243 8 485 24 242 17 575 40
740 51 165 11 568 38 895 60 327 22 730 49 895 60 165 11 431 29 590 40 427
29 1733 117 2085 140 485 32 501 36 584 116 140 136 100 381 -77 471 -60 30
-143 36 -312 23z"/>
<path d="M4633 5829 c-2545 -8 -2293 2 -2395 -99 -45 -45 -60 -69 -74 -115
-41 -144 21 -286 156 -356 42 -23 57 -24 250 -27 113 -2 1501 1 3085 6 3238
11 2928 2 3024 88 156 140 115 399 -78 488 -46 21 -48 21 -891 22 -465 0
-1849 -3 -3077 -7z"/>
</g>
</svg>
